<?xml version="1.0" encoding="utf-8"?>
<!-- Generator: Adobe Illustrator 16.0.0, SVG Export Plug-In . SVG Version: 6.00 Build 0)  -->
<!DOCTYPE svg PUBLIC "-//W3C//DTD SVG 1.1//EN" "http://www.w3.org/Graphics/SVG/1.1/DTD/svg11.dtd">
<svg version="1.1" id="Layer_1" xmlns="http://www.w3.org/2000/svg" xmlns:xlink="http://www.w3.org/1999/xlink" x="0px" y="0px"
	 width="186.004px" height="86.728px" viewBox="0 0 186.004 86.728" enable-background="new 0 0 186.004 86.728"
	 xml:space="preserve">
<g>
	<path fill="#FFFFFF" d="M59.641,4.727c1.075,0.045,2.006,0.739,2.659,1.802c0.475-0.506,1.12-0.849,1.974-0.969
		c0.059-0.008,0.185-0.011,0.288-0.012c-1.756-1.923-4.275-3.136-7.083-3.136c-0.514,0-1.015,0.052-1.507,0.13
		c-0.102,0.005-0.231,0.023-0.4,0.061c-0.014,0.003-0.028,0.005-0.042,0.008c-0.014,0.003-0.021,0.003-0.036,0.007
		c-1.939,0.475-3.397,0.089-4.226-1.036C51.181,1.463,50.825,0.93,50.715,0c-0.611,0.631-1.01,1.675-0.667,2.776
		c0.274,0.877,0.775,1.355,1.327,1.625c-0.839,0.051-1.539-0.106-2.239-0.635c-0.413-0.314-0.666-0.652-1.096-1.542
		c-0.417,0.607-0.38,1.304-0.303,1.671c0.103,0.477,0.354,1.018,0.671,1.326c0.494,0.484,1.193,0.585,1.755,0.582
		c-0.823,0.968-1.461,2.099-1.85,3.342c2.22-0.501,5.172-0.623,6.844-0.753C55.68,6.256,57.158,4.623,59.641,4.727z"/>
	<ellipse fill="#FFFFFF" cx="64.586" cy="10.078" rx="1.756" ry="3.055"/>
	<ellipse fill="#FFFFFF" cx="59.642" cy="10.224" rx="2.255" ry="3.853"/>
	<path fill="#FFFFFF" d="M172.239,48.094V39.56h-5.962h-8.721h-0.453h-0.098h-9.994V26.713l-15.232,4.588v8.259h-6.883v4.599
		c-3.684-3.907-8.856-5.883-15.602-5.883c-5.047,0-9.451,1.376-13.03,4.038c-3.086,2.295-4.867,5.48-5.302,9.431
		c-1.16-2.311-2.711-4.449-4.702-6.402c-4.68-4.68-10.461-7.066-17.344-7.066c-1.942,0-3.792,0.218-5.569,0.606
		c-4.101,0.896-7.76,2.823-10.981,5.749c0.402-0.673,0.827-1.339,1.297-1.992c0.694-0.966,1.436-1.861,2.213-2.703V33.71
		c0,0-0.184-4.717,1.601-8.239c0.626-1.235,2.058-2.931,3.126-3.856c0.574-0.498,1.139-0.922,1.699-1.311
		c0.285-0.166,0.559-0.346,0.824-0.54c4.726-2.901,8.897-2.256,12.344-1.757c0,0,0.824-2.442-2.557-3.697
		c-1.836-0.682-4.011-1.224-5.819-1.61c-0.259,0.472-0.589,0.868-0.984,1.173c-0.276,0.213-0.974,0.749-2.242,0.598
		c-0.637-0.076-1.128-0.337-1.517-0.715c-0.656,1.087-1.608,1.803-2.713,1.896c-3.054,0.259-4.59-2.296-4.69-5.131
		c-2.286,0.224-5.409,1.63-7.073,2.451v36.987c-1.466,2.354-2.49,4.902-3.017,7.673C44.722,45.119,37.8,38.275,27.989,38.275
		c-5.781,0-10.002,1.927-12.755,5.873V39.56H0v45.883h15.233V61.034c0-5.415,2.753-8.351,7.525-8.351
		c4.129,0,6.882,2.478,6.882,7.249v25.511h15.233V67.448c0.9,4.692,3.132,8.808,6.7,12.306c4.771,4.681,10.553,6.975,17.344,6.975
		c6.882,0,12.664-2.294,17.344-6.975c1.04-1.02,1.945-2.101,2.758-3.224c3.509,6.765,10.258,10.198,20.184,10.198
		c5.414,0,10.003-1.285,13.949-3.762c3.945-2.479,5.873-6.424,5.873-11.654c0.092-10.187-8.26-13.49-14.774-14.684
		c-4.405-1.01-7.983-1.927-7.983-3.67c0-1.469,1.101-2.203,3.395-2.203c2.479,0,4.313,1.285,5.689,3.946l9.545-4.295v3.744h6.883
		v13.673c0,7.25,1.834,12.297,5.506,15.143c3.762,2.752,11.187,3.578,20.271,2.477h14.683V66.448c0-4.13,1.377-7.157,4.221-8.993
		c2.846-1.836,6.057-2.478,9.544-1.928V38.643C179.673,38.643,173.982,42.13,172.239,48.094z M68.917,72.045
		c-5.231,0-9.177-3.946-9.177-9.544s3.946-9.543,9.177-9.543c5.414,0,9.269,3.945,9.269,9.543S74.332,72.045,68.917,72.045z
		 M113.241,71.678c0,1.651-1.376,2.478-4.13,2.478c-3.578,0-5.965-1.651-7.157-5.047l-12.025,6.055
		c2.309-3.716,3.49-7.938,3.49-12.662c0-0.332-0.032-0.65-0.044-0.978c2.919,3.728,7.849,5.495,11.975,6.392
		C109.754,69.017,113.241,69.935,113.241,71.678z M157.006,57.823v13.881c-6.521,0.306-9.994-0.319-9.994-4.247V54.151h6.188
		l3.806-14.224V57.823z"/>
</g>
</svg>
